<svg xmlns="http://www.w3.org/2000/svg" version="1.1" fill="#fff" viewBox="-5.0 -10.0 110.0 135.0">
 <path d="m84.379 36.812v39.156c-0.003906 5.0117-3.3281 9.418-8.1484 10.797-4.8203 1.3828-9.9727-0.59766-12.629-4.8477-2.6562-4.2539-2.1797-9.75 1.1758-13.48 3.3516-3.7266 8.7695-4.7852 13.277-2.5898v-13.223l-25.969 4.8711v24.512c-0.003907 5.0156-3.3281 9.4219-8.1484 10.801s-9.9727-0.59766-12.629-4.8516c-2.6562-4.25-2.1797-9.75 1.1758-13.477 3.3516-3.7305 8.7695-4.7852 13.277-2.5938v-29.035c0-1.5312 1.0898-2.8438 2.5938-3.1289l32.262-6.043c0.92969-0.16016 1.8789 0.09375 2.6055 0.69531 0.72266 0.60547 1.1445 1.4922 1.1562 2.4375zm-32.449-17.367c-0.48828-2.4062-1.9844-4.4922-4.1133-5.7227l-11.293-6.5469h0.003906c-0.98438-0.55469-2.1836-0.54688-3.1602 0.019531-0.97266 0.56641-1.5781 1.6055-1.5859 2.7305v23.5c-4.5078-2.1914-9.9219-1.1328-13.273 2.5938-3.3516 3.7266-3.8281 9.2227-1.1719 13.473s7.8047 6.2305 12.625 4.8516c4.8164-1.3789 8.1406-5.7852 8.1484-10.797v-28.148l6.5469 3.7969c0.54297 0.32813 0.93359 0.86328 1.0742 1.4844 0.12891 0.63281-0.023438 1.2891-0.41016 1.8047-1.4648 1.9297-2.0469 4.3867-1.6133 6.7656 0.34375 1.6992 1.9883 2.8086 3.6914 2.4883 1.7031-0.32031 2.8359-1.9492 2.5391-3.6562-0.12109-0.62109 0.027344-1.2656 0.41016-1.7734 1.4844-1.957 2.0586-4.4531 1.582-6.8633z"/>
<text x="0.0" y="117.5" font-size="5.0" font-weight="bold" font-family="Arbeit Regular, Helvetica, Arial-Unicode, Arial, Sans-serif" fill="#000000"></text><text x="0.0" y="122.5" font-size="5.0" font-weight="bold" font-family="Arbeit Regular, Helvetica, Arial-Unicode, Arial, Sans-serif" fill="#000000"></text></svg>