<svg xmlns="http://www.w3.org/2000/svg" version="1.1" viewBox="-5.0 -10.0 110.0 135.0">
 <path d="m63.938 18.742c-1.7812-0.75781-3.8438 0.054687-4.6289 1.8242-0.36719 0.85156-0.37891 1.8125-0.03125 2.6719 0.34766 0.85547 1.0273 1.5391 1.8789 1.8945 6.6602 2.7539 11.953 8.043 14.715 14.699 2.7578 6.6602 2.7578 14.141 0 20.801-2.7617 6.6562-8.0547 11.945-14.715 14.699-0.85156 0.35547-1.5312 1.0391-1.8789 1.8945-0.34766 0.85938-0.33594 1.8203 0.03125 2.668 0.56641 1.2852 1.8398 2.1133 3.2422 2.1055 0.47656 0 0.94922-0.097656 1.3867-0.28125 8.3555-3.457 14.992-10.09 18.453-18.441 3.4648-8.3555 3.4609-17.738 0-26.09-3.4609-8.3555-10.098-14.988-18.453-18.445zm-2.9883 47.715c5.5625-3.5195 8.9375-9.6406 8.9375-16.223s-3.375-12.707-8.9375-16.223c-1.6289-1.0508-3.8008-0.59766-4.8789 1.0117-0.50781 0.77344-0.68359 1.7188-0.49219 2.6211 0.19531 0.90625 0.74219 1.6914 1.5234 2.1875 3.5703 2.2539 5.7344 6.1797 5.7344 10.402 0 4.2188-2.1641 8.1445-5.7344 10.398-0.78125 0.49609-1.3281 1.2852-1.5234 2.1875-0.19141 0.90625-0.015625 1.8477 0.49219 2.6211 1.0781 1.6094 3.2461 2.0625 4.8789 1.0156zm-10.699-40.285c-0.019531-1.4375-0.85547-2.7344-2.1523-3.3516-1.2969-0.61328-2.832-0.4375-3.957 0.45703l-16.547 13.055h-7.5547c-1.3281-0.011719-2.6055 0.50781-3.5508 1.4375-0.94531 0.93359-1.4805 2.2031-1.4883 3.5312v17.867c0.019531 2.7617 2.2734 4.9844 5.0352 4.9648h7.5508l16.559 13.055c1.1211 0.89453 2.6562 1.0703 3.9531 0.45703 1.3008-0.61719 2.1328-1.9141 2.1523-3.3516z" fill-rule="evenodd"/>
<text x="0.0" y="117.5" font-size="5.0" font-weight="bold" font-family="Arbeit Regular, Helvetica, Arial-Unicode, Arial, Sans-serif" fill="#000000"></text><text x="0.0" y="122.5" font-size="5.0" font-weight="bold" font-family="Arbeit Regular, Helvetica, Arial-Unicode, Arial, Sans-serif" fill="#000000"></text></svg>