<svg xmlns="http://www.w3.org/2000/svg" version="1.1" viewBox="-5.0 -10.0 110.0 135.0">
 <path d="m90.625 11.594v76.812c0.015625 2.2266-1.1641 4.293-3.0938 5.4062-0.95703 0.5625-2.0469 0.86719-3.1562 0.875-1.0742-0.011719-2.125-0.28906-3.0625-0.8125l-65.688-36.781v36.656c0 1.7266-1.3984 3.125-3.125 3.125s-3.125-1.3984-3.125-3.125v-87.5c0-1.7266 1.3984-3.125 3.125-3.125s3.125 1.3984 3.125 3.125v36.656l65.688-36.781c1.9375-1.0859 4.3086-1.0586 6.2227 0.066406 1.918 1.125 3.0938 3.1797 3.0898 5.4023z"/>
<text x="0.0" y="117.5" font-size="5.0" font-weight="bold" font-family="Arbeit Regular, Helvetica, Arial-Unicode, Arial, Sans-serif" fill="#000000"></text><text x="0.0" y="122.5" font-size="5.0" font-weight="bold" font-family="Arbeit Regular, Helvetica, Arial-Unicode, Arial, Sans-serif" fill="#000000"></text></svg>