<svg xmlns="http://www.w3.org/2000/svg" fill="#fff" xmlns:xlink="http://www.w3.org/1999/xlink" version="1.1" x="0px" y="0px" viewBox="0 0 96 120" style="enable-background:new 0 0 96 96;" xml:space="preserve"><path d="M48,6.268C24.989,6.268,6.268,24.989,6.268,48S24.989,89.732,48,89.732S89.732,71.011,89.732,48S71.011,6.268,48,6.268z   M48,85.757C27.18,85.757,10.243,68.82,10.243,48S27.18,10.243,48,10.243S85.757,27.18,85.757,48S68.82,85.757,48,85.757z   M67.31,46.279l-28.683-16.56c-0.615-0.355-1.372-0.355-1.987,0c-0.615,0.355-0.994,1.011-0.994,1.721v33.12  c0,0.71,0.379,1.366,0.994,1.721c0.307,0.178,0.65,0.266,0.994,0.266c0.343,0,0.686-0.089,0.994-0.266l28.683-16.56  c0.615-0.355,0.994-1.011,0.994-1.721S67.925,46.634,67.31,46.279z M39.62,61.118V34.882L62.342,48L39.62,61.118z"/><text x="0" y="111" fill="#000000" font-size="5px" font-weight="bold" font-family="'Helvetica Neue', Helvetica, Arial-Unicode, Arial, Sans-serif"></text><text x="0" y="116" fill="#000000" font-size="5px" font-weight="bold" font-family="'Helvetica Neue', Helvetica, Arial-Unicode, Arial, Sans-serif"></text></svg>